<svg id="visual" viewBox="0 0 960 540" width="960" height="540" xmlns="http://www.w3.org/2000/svg" xmlns:xlink="http://www.w3.org/1999/xlink" version="1.1"><rect x="0" y="0" width="960" height="540" fill="#F8F9FB"></rect><defs><linearGradient id="grad1_0" x1="43.8%" y1="100%" x2="100%" y2="0%"><stop offset="14.444444444444446%" stop-color="#f8f9fb" stop-opacity="1"></stop><stop offset="85.55555555555554%" stop-color="#f8f9fb" stop-opacity="1"></stop></linearGradient></defs><defs><linearGradient id="grad2_0" x1="0%" y1="100%" x2="56.3%" y2="0%"><stop offset="14.444444444444446%" stop-color="#f8f9fb" stop-opacity="1"></stop><stop offset="85.55555555555554%" stop-color="#f8f9fb" stop-opacity="1"></stop></linearGradient></defs><g transform="translate(960, 540)"><path d="M-351 0C-302.1 -26.8 -253.2 -53.6 -243.9 -101C-234.6 -148.4 -264.9 -216.5 -248.2 -248.2C-231.5 -279.9 -167.8 -275.3 -118.6 -286.4C-69.4 -297.5 -34.7 -324.2 0 -351L0 0Z" fill="#FF7852"></path></g><g transform="translate(0, 0)"><path d="M351 0C347.6 46.6 344.1 93.2 324.3 134.3C304.4 175.5 268.2 211.3 229.1 229.1C190 247 148.1 246.9 109.4 264.2C70.8 281.6 35.4 316.3 0 351L0 0Z" fill="#FF7852"></path></g></svg>