<?xml version="1.0" encoding="utf-8"?>
<!-- Uploaded to: SVG Repo, www.svgrepo.com, Generator: SVG Repo Mixer Tools -->
<svg fill="#000000" version="1.1" id="Layer_1" xmlns="http://www.w3.org/2000/svg" xmlns:xlink="http://www.w3.org/1999/xlink" 
	 width="800px" height="800px" viewBox="0 0 256 253" enable-background="new 0 0 256 253" xml:space="preserve">
<path d="M158,183v8h-3.678l-6.783,37h-38.562l-6.783-37H98v-8h28v-13.503c-9.417-1.318-5.916-12.044-5.916-12.044l2.833-9.291
	l-6.628,6.628l-0.227,0.34c0,0-8.668,9.631-14.333-0.623c-0.68-1.246-1.133-2.436-1.303-3.456c-1.36-7.251,8.101-9.234,8.101-9.234
	l0.623-0.057l8.894-2.039l-9.348-2.493h-0.113c0,0-12.69-2.663-6.685-12.69c1.473-2.436,3.116-3.682,4.759-4.192
	c4.872-1.53,9.631,3.739,9.631,3.739l0.17,0.17l6.515,6.968l-2.549-9.517c0,0-4.079-12.293,7.648-12.067c0,0,0,0,0.057,0
	s0.113,0,0.17,0c11.5,0.227,7.591,12.18,7.591,12.18l-2.833,9.347l6.572-6.515l0.283-0.34c0,0,8.668-9.631,14.333,0.623
	c0.68,1.246,1.133,2.379,1.303,3.456c1.36,7.251-8.101,9.234-8.101,9.234l-0.623,0.057l-8.838,2.039l9.347,2.493h0.113
	c0,0,12.69,2.663,6.628,12.69c-1.813,3.116-3.909,4.305-5.948,4.475c-4.419,0.396-8.441-4.022-8.441-4.022l-0.17-0.227l-6.458-6.911
	l2.549,9.291c0,0,3.239,9.964-4.606,11.824V183H158z M2,61h252v8c-0.301,14.158-9.11,25.609-22,29.554V233h22v18H2v-18h22V98.576
	C11.625,94.302,2,82.678,2,69V61z M42,98.594V233h172V98.5c-13.228-3.738-22.954-15.728-22.954-30.154
	c0,10.448-9.63,31.447-31.363,31.447c-24.053,0-31.464-20.395-31.464-31.447c0,11.855-9.513,31.47-31.202,31.47
	c-24.971,0-31.727-24.992-31.727-31.47C65.29,82.895,55.402,94.966,42,98.594z M222.832,22H223V2H34v20L2,54h252L222.832,22z"/>
</svg>