<?xml version="1.0" encoding="iso-8859-1"?>
<!-- Uploaded to: SVG Repo, www.svgrepo.com, Generator: SVG Repo Mixer Tools -->
<!DOCTYPE svg PUBLIC "-//W3C//DTD SVG 1.1//EN" "http://www.w3.org/Graphics/SVG/1.1/DTD/svg11.dtd">
<svg fill="#000000" height="800px" width="800px" version="1.1" id="Capa_1" xmlns="http://www.w3.org/2000/svg" xmlns:xlink="http://www.w3.org/1999/xlink" 
	 viewBox="0 0 463.037 463.037" xml:space="preserve">
<path d="M448.833,216.253c-12.167-7.755-32.907-12.454-53.863-11.748c8.221-19.699,14.417-38.824,17.761-55.035
	c5.022-24.349,3.08-39.023-5.939-44.863c-2.626-1.701-7.036-3.36-13.1-1.608c-15.708,4.537-34.891,31.381-50.15,59.355
	c-8.141-36.341-23.606-68.405-47.661-68.405c-0.774,0-1.58,0.04-2.408,0.119c-7.394-17.982-18.457-28.125-31.027-28.125
	c-1.734,0-3.441,0.195-5.115,0.578c-6.711-10.004-15.827-15.604-25.812-15.604c-9.985,0-19.1,5.601-25.812,15.605
	c-1.674-0.384-3.382-0.579-5.117-0.579c-12.57,0-23.633,10.143-31.027,28.125c-0.828-0.079-1.634-0.119-2.408-0.119
	c-24.055,0-39.52,32.064-47.661,68.406c-15.259-27.974-34.44-54.818-50.148-59.356c-6.071-1.753-10.474-0.093-13.101,1.608
	c-9.02,5.839-10.962,20.514-5.939,44.863c3.344,16.211,9.54,35.336,17.761,55.035c-20.955-0.706-41.696,3.993-53.863,11.748
	C2.464,223.736,0,232.432,0,238.409v1.145c0,22.961,17.428,44.331,49.072,60.171c10.673,5.343,22.691,9.923,35.697,13.673
	c-5.036,15.908-3.803,29.335-1.871,42.743c2.307,15.926,15.203,43.854,15.751,45.036c1.314,2.834,4.079,4.719,7.197,4.908
	c0.65,0.04,8.652,0.51,18.451,0.51c9.8,0,21.396-0.471,29.23-2.315c12.757-3,26.205-6.883,39.405-17.63
	c12.281,11.122,33.238,23.677,34.232,24.269c1.341,0.8,2.848,1.2,4.354,1.2s3.014-0.4,4.355-1.2
	c0.991-0.592,21.882-13.108,34.17-24.214c7.697,6.4,18.565,12.662,39.462,17.575c7.838,1.845,19.434,2.316,29.235,2.316
	c9.796,0,17.799-0.471,18.449-0.51c3.118-0.188,5.883-2.073,7.197-4.908c0.548-1.181,13.444-29.109,15.752-45.043
	c1.93-13.402,3.163-26.83-1.873-42.736c13.006-3.75,25.023-8.331,35.696-13.673c31.646-15.841,49.073-37.21,49.073-60.171v-1.145
	C463.037,232.432,460.573,223.736,448.833,216.253z M378.492,138.651c9.914-13.217,16.412-17.893,19.162-19.07
	c1.001,3.004,1.788,11.698-2.267,29.664c-3.822,16.938-10.852,37.2-19.939,57.592c-3.799,0.813-7.508,1.849-11.083,3.11
	c-3.344-7.02-8.742-12.91-15.712-16.975c-0.097-0.847-0.198-1.695-0.302-2.545C357.823,170.32,368.475,152.006,378.492,138.651z
	 M264.438,315.556h-1.407c-11.306,0-18.365-7.318-21.202-14.167s-3.02-17.015,4.976-25.009l65.257-65.257
	c4.938-4.938,10.704-6.756,16.006-6.756c3.281,0,6.385,0.697,9.003,1.781c6.849,2.837,14.167,9.896,14.167,21.202v1.407
	C351.236,276.618,312.299,315.556,264.438,315.556z M234.782,264.359c-1.182,1.182-2.255,2.428-3.264,3.707
	c-1.009-1.279-2.082-2.525-3.263-3.707l-48.457-48.457c2.157-32.955,10.284-62.947,22.49-82.743
	c8.822-14.322,19.203-22.21,29.23-22.21s20.408,7.887,29.232,22.213c12.203,19.792,20.329,49.784,22.488,82.74L234.782,264.359z
	 M111.801,228.757v-1.407c0-11.306,7.318-18.365,14.167-21.202c2.618-1.084,5.722-1.781,9.004-1.781
	c5.301,0,11.067,1.819,16.005,6.756l65.257,65.257c7.995,7.995,7.812,18.161,4.975,25.01s-9.896,14.167-21.201,14.167H198.6
	C150.738,315.556,111.801,276.618,111.801,228.757z M316.513,133.233c6.385,13.894,11.355,32.837,14.306,54.192
	c-11.255-0.801-22.342,3.24-30.779,11.677l-1.155,1.155c-3.284-28.036-10.614-52.954-21.228-71.871
	c5.917-11.131,12.448-17.437,18.226-17.437C302.388,110.95,310.1,119.28,316.513,133.233z M277.86,100.796
	c-3.547,2.844-7.184,6.775-10.768,12.13c-5.813-6.877-12.11-11.94-18.757-15.098c4.723-10.218,10.206-14.884,14.111-14.884
	C266.764,82.944,272.885,88.524,277.86,100.796z M231.52,67.919c3.916,0,7.934,2.726,11.313,7.514
	c-4.325,4.611-8.154,10.82-11.313,18.45c-3.159-7.629-6.988-13.838-11.312-18.449C223.585,70.645,227.603,67.919,231.52,67.919z
	 M200.591,82.944c3.905,0,9.387,4.667,14.111,14.884c-6.647,3.158-12.944,8.221-18.757,15.098c-3.584-5.355-7.22-9.287-10.768-12.13
	C190.152,88.524,196.273,82.944,200.591,82.944z M146.524,133.233c6.413-13.953,14.125-22.283,20.631-22.283
	c5.778,0,12.31,6.308,18.228,17.442c-10.459,18.724-17.889,44.047-21.208,71.888l-1.177-1.177
	c-8.438-8.438-19.524-12.479-30.779-11.678C135.169,166.069,140.139,147.126,146.524,133.233z M67.649,149.244
	c-4.055-17.966-3.268-26.66-2.267-29.664c2.75,1.177,9.248,5.853,19.161,19.07c10.018,13.355,20.671,31.671,30.142,51.776
	c-0.104,0.85-0.205,1.698-0.302,2.544c-6.971,4.065-12.368,9.955-15.712,16.975c-3.575-1.261-7.284-2.297-11.083-3.11
	C78.501,186.444,71.472,166.182,67.649,149.244z M17,239.553v-1.145c0-3.288,3.974-6.311,6.342-7.821
	c14.914-9.506,48.361-12.908,71.484-3.943c-0.004,0.236-0.025,0.468-0.025,0.705v1.407c0,30.189,12.958,57.405,33.6,76.389
	C64.611,296.26,17,269.44,17,239.553z M149.634,387.731c-9.198,2.166-27.232,2.021-37.656,1.627
	c-4.175-9.556-10.898-26.283-12.255-35.648c-2.004-13.914-2.328-24.408,1.571-36.115c18.229,4.039,37.947,6.555,58.357,7.37
	c0.992,0.403,1.99,0.795,2.997,1.168c1.8,22.535,9.421,36.372,18.775,47.965C172.322,381.309,162.768,384.643,149.634,387.731z
	 M231.518,393.645c-8.831-5.542-23.806-15.574-30.201-22.558c-10.476-11.428-18.301-21.309-21.039-40.151
	c5.949,1.064,12.072,1.62,18.322,1.62h1.407c12.762,0,24.11-5.696,31.511-15.334c7.401,9.638,18.75,15.334,31.512,15.334h1.407
	c6.25,0,12.373-0.556,18.321-1.619c-2.738,18.843-10.563,28.723-21.041,40.154C255.335,378.06,240.353,388.098,231.518,393.645z
	 M363.315,353.704c-1.355,9.354-8.082,26.093-12.258,35.655c-10.416,0.396-28.441,0.541-37.657-1.629
	c-13.132-3.087-22.687-6.422-31.786-13.632c9.354-11.594,16.974-25.43,18.774-47.965c1.007-0.373,2.005-0.765,2.997-1.168
	c20.41-0.814,40.129-3.331,58.358-7.37C365.642,329.301,365.317,339.795,363.315,353.704z M446.037,239.553
	c0,29.887-47.611,56.707-111.401,65.593c20.642-18.984,33.6-46.2,33.6-76.389v-1.407c0-0.237-0.021-0.469-0.025-0.705
	c23.128-8.966,56.572-5.563,71.484,3.942c2.368,1.51,6.342,4.533,6.342,7.821V239.553z"/>
</svg>